<?xml version="1.0" encoding="UTF-8"?>
<svg width="960px" height="960px" viewBox="0 0 960 960" version="1.1" xmlns="http://www.w3.org/2000/svg" xmlns:xlink="http://www.w3.org/1999/xlink">
    <title>Airgradient One</title>
    <g id="Airgradient-One" stroke="none" stroke-width="1" fill="none" fill-rule="evenodd">
        <path d="M191.513222,44.4019741 C242.430773,32.3417578 273.537765,27.3056013 284.851486,28.0992232 L285.833681,28.1703687 L758.017522,64.4886104 C785.849366,66.6293097 810.544915,79.1906468 828.397722,98.1692251 C846.295915,117.196051 857.31448,142.673384 857.723364,170.566387 L857.735115,172.093617 L857.735115,772.921793 C857.735115,800.166775 847.593339,825.252542 830.717041,844.377586 C813.799115,863.549803 790.112699,876.730127 763.091467,880.092866 L761.61073,880.266916 L359.404603,924.479594 L287.750533,931.121076 C284.068694,931.462338 280.37305,931.633243 276.67543,931.633243 C268.649337,931.633243 233.586744,923.328938 171.526394,905.460844 C149.051065,897.95479 126.153091,879.535392 109.222169,856.715646 C92.4582929,834.121047 81.9498221,807.670393 82.2363877,785.104332 L92.6382716,144.081802 C92.9499345,119.333787 104.26621,97.3355465 122.124798,80.0514109 C140.63159,62.1399223 166.187733,49.4968885 191.513222,44.4019741 Z" id="Path" stroke="#000000" stroke-width="40" stroke-linejoin="round"></path>
        <path d="M321.589763,917.891857 L378.420964,910.316795 L378.420964,910.316795 L780.511231,865.369473 C825.051796,860.390543 858.735115,822.732168 858.735115,777.914184 L858.735115,163.203456 C858.735115,117.634289 823.947422,79.6032208 778.558702,75.5519215 L307.459497,33.5026223 C252.449718,28.592568 203.875096,69.2064197 198.965041,124.216199 C198.767827,126.42569 198.644186,128.641132 198.594324,130.858847 L185.735115,702.796115 L185.735115,702.796115 L185.735115,798.943843 C185.735115,865.218013 239.460945,918.943843 305.735115,918.943843 C311.037435,918.943843 316.333926,918.592411 321.589763,917.891857 Z" id="Path-106" stroke="#000000" stroke-width="20" stroke-linecap="round" stroke-linejoin="round"></path>
        <path d="M724.09288,661.798432 L724.09288,761.814403 L570.138601,773.728297 L573.002208,665.440432 L724.09288,661.798432 Z" id="Rectangle" stroke="#000000" stroke-width="20"></path>
        <path d="M659.969017,226.89716 C673.500857,231.034258 688.305953,223.395357 693.54011,206.275202 C698.774266,189.155047 692.455414,169.036693 678.923575,164.899594 C665.391735,160.762496 650.178889,171.287343 644.944733,188.407497 C639.710576,205.527652 646.437177,222.760061 659.969017,226.89716 Z" id="Oval" stroke="#000000" stroke-width="20" stroke-linecap="round" stroke-linejoin="round"></path>
        <path d="M742.969017,226.89716 C756.500857,231.034258 771.305953,223.395357 776.54011,206.275202 C781.774266,189.155047 775.455414,169.036693 761.923575,164.899594 C748.391735,160.762496 733.178889,171.287343 727.944733,188.407497 C722.710576,205.527652 729.437177,222.760061 742.969017,226.89716 Z" id="Oval" stroke="#000000" stroke-width="20" stroke-linecap="round" stroke-linejoin="round"></path>
    </g>
</svg>