<?xml version="1.0" encoding="UTF-8"?>
<svg width="960px" height="960px" viewBox="0 0 960 960" version="1.1" xmlns="http://www.w3.org/2000/svg" xmlns:xlink="http://www.w3.org/1999/xlink">
    <title>Airgradient Outdoor</title>
    <g id="Airgradient-Outdoor" stroke="none" stroke-width="1" fill="none" fill-rule="evenodd">
        <path d="M868.414925,749.378899 C868.414925,763.333319 868.414925,778.015625 857.15625,795.874091 C851.376935,805.041218 830.15075,830.40362 724.648437,866.417969 C661.577337,887.947967 537.165369,925.286552 422.357078,923.756986 C345.119565,922.727967 276.312579,893.222449 247.335712,876.522905 C246.640204,876.122079 203.597637,853.129469 169.764083,822.409262 C135.864384,791.628996 101.987906,749.752946 101.513967,749.378899 C72.3465432,726.359101 71.0662496,712.415324 71.0662496,690.130134 C71.0662496,667.844945 64.424244,93.1790888 64.424244,70.3667946 C64.424244,47.5545004 68.2743345,45.4270487 77.4017802,40.4234905 C86.5292259,35.4199323 363.624231,16.629405 507.343322,28.4286681 C651.062413,40.2279313 825.958047,70.9449065 864.47951,87.7477278 C869.901861,90.1129236 888.02373,101.856628 891.973444,122.081792 C906.730098,197.645688 891.973444,709.130581 891.973444,722.27753 C891.973444,735.424479 868.414925,735.424479 868.414925,749.378899 Z" id="Path-328" stroke="#000000" stroke-width="40"></path>
        <path d="M64.424244,54.3998028 C96.8006523,77.9909105 125.006554,93.7147431 149.041948,101.571301 C240.408558,131.436716 380.799989,148.155886 476.411515,151.956725 C676.420993,159.907689 786.642264,142.310084 888.398785,113.209261" id="Path-353" stroke="#000000" stroke-width="20"></path>
        <path d="M891.973444,722.27753 C870.536919,738.175467 858.27525,747.36879 855.188436,749.857499 C850.558216,753.590563 860.609134,701.330453 849.07246,708.026748 C837.535786,714.723044 734.405386,760.034164 670.425423,779.908593 C606.445459,799.783022 499.720176,820.063187 467.114938,820.063187 C434.5097,820.063187 421.572055,827.753897 414.864745,857.201364 C408.157436,886.648832 392.344919,886.362482 365.967313,882.456497 C339.589706,878.550511 182.102595,814.562944 101.884783,737.062016" id="Path-354" stroke="#000000" stroke-width="20"></path>
    </g>
</svg>