<?xml version="1.0" encoding="UTF-8"?>
<svg width="960px" height="960px" viewBox="0 0 960 960" version="1.1" xmlns="http://www.w3.org/2000/svg" xmlns:xlink="http://www.w3.org/1999/xlink">
    <title>custom-capabilities/measure_voc</title>
    <g id="custom-capabilities/measure_voc" stroke="none" stroke-width="1" fill="none" fill-rule="evenodd">
        <g id="measure_VOC" transform="translate(-17, 103)" fill="#000000" fill-rule="nonzero">
            <path d="M279.785865,697.883156 L244.045286,697.883156 C243.474696,697.824071 242.904106,697.784681 242.323679,697.764986 C131.157002,694.200187 44.1223489,604.164407 44.1223489,492.789074 C44.1799448,405.681536 99.1288116,328.086426 181.221358,299.187036 C188.522212,296.62722 193.947526,290.422851 195.515621,282.84017 C224.104149,144.52205 347.449971,44.1266904 488.789054,44.1266904 C629.370629,44.1266904 752.58856,143.872115 781.73784,281.323653 C783.375645,289.036244 789.001596,295.287239 796.494478,297.719757 C864.119233,319.738788 916.23968,376.411206 932.511334,445.619503 C934.314371,453.290887 940.069028,459.416675 947.607582,461.689343 C955.146135,463.962011 963.323299,462.036286 969.058815,456.637571 C974.794332,451.238855 977.216838,443.187342 975.413801,435.515958 C956.604005,355.51479 898.403823,289.300136 822.052976,259.993948 C784.069389,108.608183 645.878389,0 488.789054,0 C330.745456,0 192.31835,109.405831 155.043081,261.943755 C61.3477256,300.258198 0.0865445432,391.466742 0,492.779226 C0,627.266665 104.477,736.150578 238.329548,741.763658 C239.407816,741.921409 240.496123,742 241.585847,742 L279.756351,742 C291.929535,742 301.79785,732.121902 301.79785,719.936653 C301.79785,707.751404 291.929535,697.873308 279.756351,697.873308 L279.785865,697.883156 Z" id="Path"></path>
            <path d="M522.353845,519.019669 L501.639128,519.019669 C497.798725,519.034723 494.329669,521.318441 492.795084,524.841802 L437.588596,651.502693 L383.315645,524.90081 C381.795063,521.323742 378.286995,519 374.402814,519 L353.697924,519 C350.437492,519 347.3954,520.64021 345.601015,523.36466 C343.80663,526.089109 343.50008,529.533571 344.785093,532.532525 L426.464754,723.09919 C427.985335,726.676258 431.493404,729 435.377585,729 L439.514632,729 C443.356601,728.980698 446.825031,726.693535 448.358676,723.168033 L531.197889,532.601367 C532.495543,529.609572 532.205177,526.165542 530.42496,523.433663 C528.644743,520.701783 525.612668,519.047274 522.353845,519.029504 L522.353845,519.019669 Z" id="Path"></path>
            <path d="M644.773593,514.000511 C605.744548,513.880409 569.700594,534.929188 550.545569,569.027865 C540.906349,586.041607 535.891792,605.295298 536.001771,624.862617 C536.001771,654.932789 546.81182,680.914127 568.005756,702.097242 C589.199693,723.280358 615.571749,734 646.335872,734 C676.795401,734 702.921816,723.21139 724.105926,701.939601 C745.290037,680.667811 756,654.420453 756,623.877356 C756,593.107649 745.19178,566.811027 723.988018,545.716585 C702.784256,524.622143 676.127256,514.000511 644.773593,514.000511 Z M681.845787,686.421737 C670.830057,692.768711 658.32269,696.047849 645.6186,695.919655 C625.967291,695.919655 609.656705,689.170615 595.733753,675.298138 C581.810801,661.42566 575.099879,644.90283 575.099879,624.72468 C574.937495,611.820664 578.167085,599.101335 584.463727,587.846354 C597.1061,565.889511 620.365268,552.25229 645.648077,551.972993 C671.122182,552.128397 694.660518,565.630192 707.706909,587.570481 C713.949949,598.63413 717.138163,611.166897 716.943024,623.877356 C717.099103,636.740012 713.887291,649.418669 707.628304,660.647304 C701.583457,671.477157 692.657519,680.41053 681.845787,686.451295 L681.845787,686.421737 Z" id="Shape"></path>
            <path d="M953.108322,667.061042 C949.015284,663.949376 943.206957,664.567058 939.859536,668.469972 C923.65563,687.327959 904.12229,696.490931 880.146419,696.490931 C858.268684,696.490931 840.744825,689.751713 826.5307,675.898876 C812.316574,662.046039 805.519799,645.355636 805.519799,624.586233 C805.519799,610.999418 808.681777,598.644185 814.91708,587.865377 C821.259347,577.000792 830.431094,568.061906 841.454054,562.00215 C852.902657,555.553707 865.835459,552.205146 878.974222,552.287429 C890.767042,552.156869 902.437328,554.689491 913.115704,559.696628 C923.509977,564.760465 932.556777,572.215658 939.514772,581.451297 C941.08478,583.49748 943.403197,584.835967 945.95992,585.172261 C948.516643,585.508554 951.102204,584.815103 953.147724,583.24448 L968.199133,571.67746 C972.363819,568.474791 973.235768,562.544176 970.169212,558.277845 C960.116452,544.321749 946.752528,533.084404 931.279839,525.576873 C915.637406,517.901653 897.95594,514 878.727962,514 C846.753568,514 819.684673,524.562049 798.309308,545.380716 C776.933942,566.199382 766,592.368042 766,622.911281 C766,651.750011 774.954012,676.76591 792.596076,697.288996 C813.725181,721.644767 842.783857,734 878.964372,734 C897.877137,734 915.302492,730.354517 930.747917,723.162076 C946.067118,716.109193 959.488553,705.511426 969.903252,692.244435 C971.523119,690.190075 972.247992,687.56997 971.91442,684.974927 C971.580848,682.379885 970.216917,680.028402 968.13018,678.450714 L953.108322,667.061042 Z" id="Path"></path>
            <path d="M489.5,296 C477.073593,296 467,306.073593 467,318.5 C467,330.926407 477.073593,341 489.5,341 C501.926407,341 512,330.926407 512,318.5 C511.989036,306.078137 501.921863,296.010964 489.5,296 L489.5,296 Z" id="Path"></path>
            <path d="M489.5,421 C477.073593,421 467,431.073593 467,443.5 C467,455.926407 477.073593,466 489.5,466 C501.926407,466 512,455.926407 512,443.5 C511.983568,431.080406 501.919594,421.016432 489.5,421 L489.5,421 Z" id="Path"></path>
            <path d="M489.5,172 C477.073593,172 467,182.073593 467,194.5 C467,206.926407 477.073593,217 489.5,217 C501.926407,217 512,206.926407 512,194.5 C511.983568,182.080406 501.919594,172.016432 489.5,172 L489.5,172 Z" id="Path"></path>
            <path d="M393.5,359 C381.073593,359 371,369.073593 371,381.5 C371,393.926407 381.073593,404 393.5,404 C405.926407,404 416,393.926407 416,381.5 C415.983568,369.080406 405.919594,359.016432 393.5,359 L393.5,359 Z" id="Path"></path>
            <path d="M393.5,234 C381.073593,234 371,244.073593 371,256.5 C371,268.926407 381.073593,279 393.5,279 C405.926407,279 416,268.926407 416,256.5 C415.983568,244.080406 405.919594,234.016432 393.5,234 L393.5,234 Z" id="Path"></path>
            <path d="M296.5,296 C284.073593,296 274,306.073593 274,318.5 C274,330.926407 284.073593,341 296.5,341 C308.926407,341 319,330.926407 319,318.5 C318.989036,306.078137 308.921863,296.010964 296.5,296 L296.5,296 Z" id="Path"></path>
            <path d="M586.5,359 C574.073593,359 564,369.073593 564,381.5 C564,393.926407 574.073593,404 586.5,404 C598.926407,404 609,393.926407 609,381.5 C608.983568,369.080406 598.919594,359.016432 586.5,359 L586.5,359 Z" id="Path"></path>
            <path d="M586.5,234 C574.073593,234 564,244.073593 564,256.5 C564,268.926407 574.073593,279 586.5,279 C598.926407,279 609,268.926407 609,256.5 C608.983568,244.080406 598.919594,234.016432 586.5,234 L586.5,234 Z" id="Path"></path>
            <path d="M683.5,296 C671.073593,296 661,306.073593 661,318.5 C661,330.926407 671.073593,341 683.5,341 C695.926407,341 706,330.926407 706,318.5 C705.989036,306.078137 695.921863,296.010964 683.5,296 L683.5,296 Z" id="Path"></path>
        </g>
    </g>
</svg>