<?xml version="1.0" encoding="UTF-8"?>
<svg width="960px" height="960px" viewBox="0 0 960 960" version="1.1" xmlns="http://www.w3.org/2000/svg" xmlns:xlink="http://www.w3.org/1999/xlink">
    <title>custom-capabilities/measure_co2</title>
    <g id="custom-capabilities/measure_co2" stroke="none" stroke-width="1" fill="none" fill-rule="evenodd">
        <path d="M468.75683,93.6688 C621.808051,93.6688 753.538398,197.874446 790.854945,343.280865 L791.312,345.118 L791.595397,345.225899 C864.722926,373.333826 920.298948,435.844972 939.174213,512.437896 L939.764132,514.887107 C942.462478,526.35482 935.353502,537.838681 923.885789,540.537028 C912.533911,543.208118 901.166211,536.269013 898.320317,525.004852 L898.235868,524.658685 C882.567371,458.069082 833.155893,404.037008 768.539317,382.253721 L766.576604,381.603512 C759.459149,379.287031 754.086314,373.413927 752.399246,366.141547 L752.312405,365.750629 C724.098066,232.888444 606.290887,136.3312 468.75683,136.3312 C332.03911,136.3312 214.869798,231.719481 185.72822,363.221062 L184.872157,367.216951 C183.382356,374.417829 178.291835,380.333852 171.416777,382.889346 L171.040015,383.025392 C92.1935206,410.665232 38.3312,485.347114 38.3312,570.281484 C38.3312,676.360277 121.714514,763.375622 226.980494,768.428565 L230.177006,768.556532 C230.651593,768.571756 231.122149,768.602398 231.5882,768.64797 L231.786,768.668 L266.454535,768.6688 C278.117622,768.6688 287.594506,778.029053 287.782877,789.64725 L287.785735,790 C287.785735,801.663087 278.425482,811.139971 266.807285,811.3312 L266.454535,811.3312 L229.493092,811.3312 C228.644868,811.3312 227.808207,811.281691 226.985841,811.185406 L226.325,811.097 L224.924049,811.041475 C98.2735942,804.962711 -2.28176688,701.300897 -4.30026612,574.180183 L-4.3312,570.281484 C-4.3312,471.214795 55.9765568,383.633437 145.576362,347.067277 L145.709,347.014 L146.22661,344.893206 C182.578749,200.209572 312.365403,95.8388165 464.010874,93.7022193 L468.75683,93.6688 Z" id="Stroke-1" fill="#000000" fill-rule="nonzero"></path>
        <path d="M462.511888,593.25533 C480.817349,593.25533 497.333665,596.913462 512.079622,604.153193 C528.903125,612.412925 542.281064,624.433407 552.22948,640.19574 L527.545608,659.134228 L523.005764,653.279591 C515.737908,644.000156 507.068151,636.924791 496.972702,632.083479 C486.592015,627.10538 475.184597,624.642318 462.762743,624.642318 C449.213591,624.642318 436.661821,627.885309 425.112741,634.391291 C413.641582,640.853377 404.734389,649.518847 398.423297,660.419823 C392.092261,671.355249 388.963715,683.659705 388.963715,697.312497 C388.963715,717.904613 395.98059,735.116566 410.114026,748.905284 C424.32378,762.768458 442.276332,769.606395 463.89159,769.606395 C489.720608,769.606395 510.950468,758.609703 527.632491,736.730313 L552.649068,755.708406 L547.894088,761.70305 C538.15163,773.873245 526.070236,783.319614 511.640424,790.030135 C497.054703,796.81316 480.767786,800.240818 462.762743,800.240817 C428.323689,800.240817 401.256212,788.62381 381.392408,765.731445 C364.716027,746.379768 356.322453,723.051751 356.322453,695.68194 C356.322453,666.792336 366.474495,642.499896 386.727934,622.782972 C406.892475,603.152591 432.130571,593.25533 462.511888,593.25533 Z M668.212988,593.25533 C698.008823,593.25533 722.912162,603.255467 742.972984,623.13797 C763.067899,643.054264 773.148148,667.560795 773.148148,696.68536 C773.148148,725.530921 763.107263,749.9912 743.061767,770.081341 C723.01227,790.175491 698.569482,800.240817 669.718118,800.240817 C640.526668,800.240817 615.905116,790.212581 595.825638,770.222345 C575.717061,750.203139 565.66095,725.98398 565.66095,697.563352 C565.66095,678.665113 570.237842,661.151562 579.374215,645.018063 C588.53955,628.833424 601.041087,616.1648 616.86678,607.000204 C632.686238,597.839218 649.80103,593.25533 668.212988,593.25533 Z M669.09098,624.51689 C656.625945,624.51689 644.816849,627.783414 633.654572,634.282 C622.480522,640.78744 613.748361,649.544653 607.471713,660.56706 C601.171202,671.631372 598.051358,683.969027 598.051358,697.563353 C598.051358,717.616674 604.973385,734.564751 618.870444,748.385242 C632.760009,762.198281 649.50022,769.104685 669.09098,769.104685 C682.210087,769.104685 694.354307,765.929958 705.518511,759.561375 C716.625697,753.225316 725.294866,744.564952 731.51697,733.571297 C737.779894,722.505516 740.883168,710.205091 740.883168,696.68536 C740.883168,683.272425 737.791049,671.131828 731.541648,660.281641 C725.305061,649.453702 716.510166,640.803953 705.188212,634.301479 C693.845557,627.787117 681.815432,624.51689 669.09098,624.51689 Z" id="CO2" stroke="#000000" stroke-width="13.2" fill="#000000" fill-rule="nonzero"></path>
        <path d="M862.159382,691.6 C877.260559,691.6 889.419047,696.571196 898.734467,706.294862 C908.068233,716.037677 912.718533,727.532641 912.718533,740.766578 C912.718533,749.977905 910.507437,758.617999 906.086032,766.687062 C901.967718,774.202986 894.016521,784.412035 882.134982,797.255084 L854.133436,827.475332 L914.707923,827.475332 L914.707923,852.4 L797.579102,852.4 L861.885765,782.944227 C872.834623,771.227534 880.006302,762.567745 883.304443,756.900064 C886.219569,751.890576 887.694395,746.615249 887.694395,741.064987 C887.694395,734.334774 885.151578,728.559491 880.138541,723.709039 C875.026901,718.763182 868.758802,716.325729 861.363626,716.325729 C853.564588,716.325729 847.04916,718.873743 841.866574,724.084043 C835.583226,730.400992 832.689016,739.779413 832.633519,751.935809 L808.063785,751.935809 C807.29624,733.421936 812.706227,718.515621 824.066939,707.11419 C834.35024,696.794031 847.03812,691.6 862.159382,691.6 Z" id="2" stroke="#000000" stroke-width="10.8" fill="#000000" fill-rule="nonzero"></path>
    </g>
</svg>