<?xml version="1.0" encoding="UTF-8"?>
<svg width="960px" height="960px" viewBox="0 0 960 960" version="1.1" xmlns="http://www.w3.org/2000/svg" xmlns:xlink="http://www.w3.org/1999/xlink">
    <title>custom-capabilities/measure_pm2.5</title>
    <g id="custom-capabilities/measure_pm2.5" stroke="none" stroke-width="1" fill="none" fill-rule="evenodd">
        <g id="measure_PM10" transform="translate(0, 135)" fill="#000000" fill-rule="nonzero">
            <path d="M891.201463,429.027086 C902.213049,426.434262 909.039929,415.406986 906.452086,404.393164 C888.970556,330.116496 834.880215,268.623132 763.920928,241.401459 C728.628717,100.830829 600.2053,0 454.199779,0 C307.36224,0 178.710246,101.589781 144.067192,243.230258 C56.9958749,278.817346 0.0721670635,363.512529 0,457.583781 C0,582.463317 97.0992945,683.559322 221.499765,688.780543 C222.501891,688.927024 223.513346,689 224.526118,689 L260.00119,689 C271.314757,689 280.486215,679.827603 280.486215,668.512879 C280.486215,657.198155 271.314757,648.025758 260.00119,648.025758 L226.775311,648.025758 C226.245013,647.970895 225.714716,647.934319 225.175275,647.916031 C121.8587,644.605904 40.9700507,561.002361 40.9700507,457.583781 C41.0235794,376.699284 92.0921993,304.647638 168.387731,277.812846 C175.184703,275.445412 180.239217,269.682121 181.700026,262.633815 C208.2149,134.197266 322.878012,40.9742401 454.236351,40.9742401 C584.908961,40.9742401 699.398355,133.593762 726.507528,261.22564 C728.029678,268.387236 733.258349,274.191654 740.222117,276.450391 C803.07151,296.905507 851.51144,349.529196 866.624918,413.784047 C869.222439,424.766436 880.209957,431.581193 891.201463,429.027086 L891.201463,429.027086 Z" id="Path"></path>
            <path d="M383.60605,483.922717 C375.710147,481.949883 361.567138,481 340.389264,481 L305.0409,481 C300.047749,481 296,485.036043 296,490.014754 L296,666.985246 C296,671.963957 300.047749,676 305.0409,676 L322.774622,676 C327.767773,676 331.815522,671.963957 331.815522,666.985246 L331.815522,593.70726 L335.479514,593.70726 C358.379465,593.70726 373.878151,592.684309 382.726692,590.574473 C395.660584,587.469087 406.029681,581.230913 413.550025,572.042623 C421.070369,562.854333 425,551.035597 425,537.17096 C425,523.306323 421.052049,511.59719 413.256905,502.235363 C405.651818,493.057489 395.234566,486.623696 383.60605,483.922717 L383.60605,483.922717 Z M352.929276,558.725995 L331.815522,558.470258 L331.815522,516.346604 L354.147554,516.346604 C367.557765,516.346604 373.823191,517.698361 376.708585,518.840047 C380.219865,520.224749 383.192954,522.696224 385.190726,525.891101 C387.420544,529.253106 388.588329,533.204457 388.543279,537.234895 C388.611321,541.342601 387.443604,545.376434 385.190726,548.816159 C383.041532,552.129974 379.877191,554.663736 376.168146,556.040749 C373.062913,557.264637 366.476887,558.716862 352.929276,558.725995 L352.929276,558.725995 Z" id="Shape"></path>
            <path d="M617.453201,481 L614.618603,481 C611.176553,481 608.034154,482.95529 606.517141,486.041217 L543.241607,614.81135 L479.34429,485.986421 C477.817727,482.933586 474.695997,481.00346 471.279403,481 L468.40823,481 C463.917,480.996151 460.107819,484.294425 459.474675,488.735344 L434.091311,665.670986 C433.720118,668.258252 434.491603,670.879051 436.205762,672.853959 C437.919922,674.828867 440.407958,675.963409 443.024865,675.963464 L460.123889,675.963464 C464.638283,675.963473 468.458265,672.63192 469.066588,668.164194 L482.508067,569.705273 L532.83589,670.95878 C534.360276,674.024601 537.491802,675.963479 540.919065,675.963464 L545.445278,675.963464 C548.876632,675.960039 552.009202,674.013436 553.528453,670.940515 L603.170487,570.664199 L616.666829,668.21899 C617.282993,672.676026 621.095531,675.996694 625.600383,676 L642.973723,676 C645.591662,676.003001 648.081635,674.869334 649.796472,672.893646 C651.511308,670.917958 652.28165,668.295368 651.907278,665.707516 L626.386755,488.707946 C625.73757,484.279926 621.933943,481 617.453201,481 Z" id="Path"></path>
            <path d="M758.925066,485.6 C776.269833,485.6 790.24364,491.295113 800.946106,502.466612 C811.666919,513.657261 817.010743,526.859785 817.010743,542.061008 C817.010743,552.653855 814.468081,562.589816 809.383547,571.869091 C804.602102,580.595228 795.363329,592.44276 781.569765,607.352564 L747.500579,644.12122 L819.331698,644.12122 L819.331698,671.4 L685.641206,671.4 L759.264842,591.881233 C772.103626,578.141994 780.504855,567.98187 784.372184,561.336072 C787.856496,555.348467 789.615915,549.042525 789.615915,542.409151 C789.615915,534.30847 786.561935,527.353368 780.526572,521.513747 C774.392607,515.578722 766.872851,512.646684 757.996684,512.646684 C748.639291,512.646684 740.827996,515.71415 734.612033,521.963353 C727.291561,529.322973 723.788126,540.154118 723.587192,554.191777 L696.681057,554.191777 C695.996185,533.273167 702.215635,516.387184 715.121417,503.435145 C726.946495,491.567683 741.53811,485.6 758.925066,485.6 Z" id="2" stroke="#000000" stroke-width="10.8"></path>
            <path d="M841,665.857955 C841,662.808712 842.064539,660.333965 844.193616,658.433712 C846.322694,656.53346 848.989764,655.583333 852.194827,655.583333 C855.445676,655.583333 858.13564,656.53346 860.264717,658.433712 C862.393795,660.333965 863.458333,662.808712 863.458333,665.857955 C863.458333,668.863005 862.405241,671.304609 860.299057,673.182765 C858.192873,675.060922 855.491463,676 852.194827,676 C848.943977,676 846.26546,675.060922 844.159276,673.182765 C842.053092,671.304609 841,668.863005 841,665.857955 Z" id="Path"></path>
            <path d="M872.245812,627.132791 L877.817386,578 L931.941244,578 L931.941244,594.001355 L893.537183,594.001355 L891.149365,614.783198 C895.703906,612.34869 900.545869,611.131436 905.675254,611.131436 C914.872772,611.131436 922.080443,613.98645 927.298266,619.696477 C932.516089,625.406504 935.125,633.396116 935.125,643.665312 C935.125,649.906504 933.80949,655.494806 931.178469,660.430217 C928.547448,665.365628 924.777792,669.194444 919.869501,671.916667 C914.96121,674.638889 909.168542,676 902.491497,676 C896.654611,676 891.237803,674.815944 886.241074,672.447832 C881.244346,670.07972 877.297814,666.748871 874.401481,662.455285 C871.505147,658.161698 869.968542,653.270551 869.791667,647.781843 L888.761548,647.781843 C889.159518,651.809846 890.563466,654.941509 892.973393,657.176829 C895.383319,659.41215 898.533911,660.52981 902.425169,660.52981 C906.758615,660.52981 910.097138,658.969512 912.440736,655.848916 C914.784334,652.72832 915.956134,648.313008 915.956134,642.602981 C915.956134,637.114273 914.607459,632.909214 911.91011,629.987805 C909.212761,627.066396 905.387831,625.605691 900.435321,625.605691 C895.880781,625.605691 892.188508,626.800813 889.358503,629.191057 L887.501311,630.917344 L872.245812,627.132791 Z" id="Path" stroke="#000000" stroke-width="5"></path>
            <path d="M455.5,317 C466.821837,317 476,307.821837 476,296.5 C476,285.178163 466.821837,276 455.5,276 C444.178163,276 435,285.178163 435,296.5 C435.014971,307.81563 444.18437,316.985029 455.5,317 L455.5,317 Z" id="Path"></path>
            <path d="M476,411.5 C476,400.178163 466.821837,391 455.5,391 C444.178163,391 435,400.178163 435,411.5 C435,422.821837 444.178163,432 455.5,432 C466.817697,431.990011 475.990011,422.817697 476,411.5 Z" id="Path"></path>
            <path d="M455.5,201 C466.821837,201 476,191.821837 476,180.5 C476,169.178163 466.821837,160 455.5,160 C444.178163,160 435,169.178163 435,180.5 C435.014971,191.81563 444.18437,200.985029 455.5,201 L455.5,201 Z" id="Path"></path>
            <path d="M365.5,374 C376.821837,374 386,364.821837 386,353.5 C386,342.178163 376.821837,333 365.5,333 C354.178163,333 345,342.178163 345,353.5 C345.009989,364.817697 354.182303,373.990011 365.5,374 Z" id="Path"></path>
            <path d="M365.4997,259 C373.791055,259 381.26599,254.005408 384.438954,246.345195 C387.611918,238.684982 385.858051,229.867696 379.995178,224.004822 C374.132304,218.141949 365.315018,216.388082 357.654805,219.561046 C349.994592,222.73401 345,230.208945 345,238.5003 C345.009989,249.817831 354.182169,258.990011 365.4997,259 L365.4997,259 Z" id="Path"></path>
            <path d="M275.5,276 C264.178163,276 255,285.178163 255,296.5 C255,307.821837 264.178163,317 275.5,317 C286.821837,317 296,307.821837 296,296.5 C295.985029,285.18437 286.81563,276.014971 275.5,276 L275.5,276 Z" id="Path"></path>
            <path d="M545.5,374 C556.821837,374 566,364.821837 566,353.5 C566,342.178163 556.821837,333 545.5,333 C534.178163,333 525,342.178163 525,353.5 C525.009989,364.817697 534.182303,373.990011 545.5,374 Z" id="Path"></path>
            <path d="M545.4997,259 C553.791055,259 561.26599,254.005408 564.438954,246.345195 C567.611918,238.684982 565.858051,229.867696 559.995178,224.004822 C554.132304,218.141949 545.315018,216.388082 537.654805,219.561046 C529.994592,222.73401 525,230.208945 525,238.5003 C525.014971,249.815765 534.184235,258.985029 545.4997,259 L545.4997,259 Z" id="Path"></path>
            <path d="M656,296.5 C656,285.178163 646.821837,276 635.5,276 C624.178163,276 615,285.178163 615,296.5 C615,307.821837 624.178163,317 635.5,317 C646.81563,316.985029 655.985029,307.81563 656,296.5 L656,296.5 Z" id="Path"></path>
        </g>
    </g>
</svg>