<?xml version="1.0" encoding="UTF-8"?>
<svg width="960px" height="960px" viewBox="0 0 960 960" version="1.1" xmlns="http://www.w3.org/2000/svg" xmlns:xlink="http://www.w3.org/1999/xlink">
    <title>custom-capabilities/measure_noX</title>
    <g id="custom-capabilities/measure_noX" stroke="none" stroke-width="1" fill="none" fill-rule="evenodd">
        <path d="M468.75683,93.6688 C621.808051,93.6688 753.538398,197.874446 790.854945,343.280865 L791.312,345.118 L791.595397,345.225899 C864.722926,373.333826 920.298948,435.844972 939.174213,512.437896 L939.764132,514.887107 C942.462478,526.35482 935.353502,537.838681 923.885789,540.537028 C912.533911,543.208118 901.166211,536.269013 898.320317,525.004852 L898.235868,524.658685 C882.567371,458.069082 833.155893,404.037008 768.539317,382.253721 L766.576604,381.603512 C759.459149,379.287031 754.086314,373.413927 752.399246,366.141547 L752.312405,365.750629 C724.098066,232.888444 606.290887,136.3312 468.75683,136.3312 C332.03911,136.3312 214.869798,231.719481 185.72822,363.221062 L184.872157,367.216951 C183.382356,374.417829 178.291835,380.333852 171.416777,382.889346 L171.040015,383.025392 C92.1935206,410.665232 38.3312,485.347114 38.3312,570.281484 C38.3312,676.360277 121.714514,763.375622 226.980494,768.428565 L230.177006,768.556532 C230.651593,768.571756 231.122149,768.602398 231.5882,768.64797 L231.786,768.668 L266.454535,768.6688 C278.117622,768.6688 287.594506,778.029053 287.782877,789.64725 L287.785735,790 C287.785735,801.663087 278.425482,811.139971 266.807285,811.3312 L266.454535,811.3312 L229.493092,811.3312 C228.644868,811.3312 227.808207,811.281691 226.985841,811.185406 L226.325,811.097 L224.924049,811.041475 C98.2735942,804.962711 -2.28176688,701.300897 -4.30026612,574.180183 L-4.3312,570.281484 C-4.3312,471.214795 55.9765568,383.633437 145.576362,347.067277 L145.709,347.014 L146.22661,344.893206 C182.578749,200.209572 312.365403,95.8388165 464.010874,93.7022193 L468.75683,93.6688 Z" id="Stroke-1" fill="#000000" fill-rule="nonzero"></path>
        <path d="M674.594431,571.783131 C709.384499,571.783131 738.475488,583.435961 761.903749,606.65597 C785.356804,629.900554 797.10718,658.506543 797.10718,692.494154 C797.10718,726.161005 785.395253,754.713715 761.99778,778.163298 C738.597397,801.615798 710.067228,813.355321 676.396157,813.355321 C642.320621,813.355321 613.572056,801.662413 590.130227,778.32477 C566.667236,754.966059 554.934414,726.706556 554.934414,693.545161 C554.934414,671.473088 560.276293,651.01694 570.947389,632.173347 C581.639547,613.29256 596.221309,598.510715 614.683914,587.819093 C633.141985,577.130098 653.111713,571.783131 674.594431,571.783131 Z M675.645438,603.00384 C660.176903,603.00384 645.519317,607.049002 631.666046,615.114262 C617.804213,623.184507 606.975341,634.05124 599.189338,647.724222 C591.38598,661.42768 587.506418,676.705368 587.506418,693.545161 C587.506418,718.42142 596.10551,739.438557 613.342243,756.580322 C630.573527,773.716667 651.341281,782.284756 675.645438,782.284756 C691.903921,782.284756 706.952543,778.345638 720.787574,770.45349 C734.581138,762.584997 745.344556,751.827982 753.071249,738.17591 C760.827631,724.471383 764.68532,709.240413 764.68532,692.494154 C764.68532,675.864847 760.835743,660.81886 753.089197,647.369336 C745.35197,633.935991 734.448012,623.196517 720.400047,615.128429 C706.337028,607.051695 691.420487,603.00384 675.645438,603.00384 Z M349.019172,577.338452 L488.871137,738.354108 L488.871137,577.338452 L520.24199,577.338452 L520.24199,807.8 L508.304727,807.8 L369.647746,648.844781 L369.647746,807.8 L337.225886,807.8 L337.225886,577.338452 L349.019172,577.338452 Z" id="NO" stroke="#000000" stroke-width="9.6" fill="#000000" fill-rule="nonzero"></path>
        <path d="M913.690021,740.232095 L940.085208,766.627282 L898.606533,808.105095 L940.085208,849.583583 L913.690021,875.97877 L872.211533,834.500095 L830.733719,875.97877 L804.338533,849.583583 L845.816533,808.105095 L804.338533,766.627282 L830.733719,740.232095 L872.211533,781.710095 L913.690021,740.232095 Z" id="Combined-Shape" fill="#000000"></path>
    </g>
</svg>