<?xml version="1.0" encoding="UTF-8"?>
<svg width="960px" height="960px" viewBox="0 0 960 960" version="1.1" xmlns="http://www.w3.org/2000/svg" xmlns:xlink="http://www.w3.org/1999/xlink">
    <title>custom-capabilities/measure_tvoc</title>
    <g id="custom-capabilities/measure_tvoc" stroke="none" stroke-width="1" fill="none" fill-rule="evenodd">
        <path d="M468.75683,93.6688 C621.808051,93.6688 753.538398,197.874446 790.854945,343.280865 L791.312,345.118 L791.595397,345.225899 C864.722926,373.333826 920.298948,435.844972 939.174213,512.437896 L939.764132,514.887107 C942.462478,526.35482 935.353502,537.838681 923.885789,540.537028 C912.533911,543.208118 901.166211,536.269013 898.320317,525.004852 L898.235868,524.658685 C882.567371,458.069082 833.155893,404.037008 768.539317,382.253721 L766.576604,381.603512 C759.459149,379.287031 754.086314,373.413927 752.399246,366.141547 L752.312405,365.750629 C724.098066,232.888444 606.290887,136.3312 468.75683,136.3312 C332.03911,136.3312 214.869798,231.719481 185.72822,363.221062 L184.872157,367.216951 C183.382356,374.417829 178.291835,380.333852 171.416777,382.889346 L171.040015,383.025392 C92.1935206,410.665232 38.3312,485.347114 38.3312,570.281484 C38.3312,676.360277 121.714514,763.375622 226.980494,768.428565 L230.177006,768.556532 C230.651593,768.571756 231.122149,768.602398 231.5882,768.64797 L231.786,768.668 L266.454535,768.6688 C278.117622,768.6688 287.594506,778.029053 287.782877,789.64725 L287.785735,790 C287.785735,801.663087 278.425482,811.139971 266.807285,811.3312 L266.454535,811.3312 L229.493092,811.3312 C228.644868,811.3312 227.808207,811.281691 226.985841,811.185406 L226.325,811.097 L224.924049,811.041475 C98.2735942,804.962711 -2.28176688,701.300897 -4.30026612,574.180183 L-4.3312,570.281484 C-4.3312,471.214795 55.9765568,383.633437 145.576362,347.067277 L145.709,347.014 L146.22661,344.893206 C182.578749,200.209572 312.365403,95.8388165 464.010874,93.7022193 L468.75683,93.6688 Z" id="Stroke-1" fill="#000000" fill-rule="nonzero"></path>
        <g id="Group-4" transform="translate(338, 601)" stroke="#FFFFFF" stroke-linejoin="round" stroke-width="18.788">
            <polygon id="Stroke-3" points="79.2048569 189.350413 83.2298341 189.350413 163.562037 4.64430115 143.481188 4.64430115 81.2834009 147.338516 20.0808489 4.64430115 0 4.64430115"></polygon>
            <path d="M234.400754,12.8704931 C219.56911,21.4596313 207.872896,33.3170466 199.294498,48.4691672 C190.707293,63.6212878 186.418094,80.0683862 186.418094,97.8192716 C186.418094,124.432386 195.833194,147.11652 214.681008,165.871674 C233.511208,184.618018 256.630606,194 284.021589,194 C311.060275,194 333.994719,184.573971 352.789688,165.748343 C371.584658,146.913904 380.990951,123.974298 380.990951,96.9383344 C380.990951,69.6468986 371.567044,46.6720552 352.728037,28.004995 C333.88903,9.33793479 310.478988,0 282.506718,0 C265.261848,0 249.223591,4.29016438 234.400754,12.8704931 Z M322.809333,28.6392698 C335.210138,35.7660521 344.827808,45.2537463 351.653535,57.1023522 C358.496877,68.9509581 361.914144,82.217873 361.914144,96.8766688 C361.914144,111.623558 358.496877,125.022614 351.653535,137.091454 C344.827808,149.151485 335.315827,158.656798 323.117592,165.616202 C310.919357,172.566797 297.664235,176.03769 283.325805,176.03769 C261.862196,176.03769 243.52521,168.479248 228.314848,153.353556 C213.104485,138.236672 205.494901,119.701753 205.494901,97.757606 C205.494901,82.9226228 208.929783,69.4795205 215.808354,57.4194896 C222.678118,45.3594587 232.234136,35.7660521 244.476408,28.6392698 C256.709873,21.5124875 269.665543,17.9623104 283.325805,17.9623104 C297.241481,17.9623104 310.399721,21.5124875 322.809333,28.6392698 Z" id="Stroke-5"></path>
            <path d="M555.85375,10.2382527 C541.964496,3.41979838 526.393031,0.00176187449 509.156969,0.00176187449 C480.621025,0.00176187449 456.876302,9.2339842 437.913992,27.6896195 C418.960489,46.1452547 409.483738,68.8910544 409.483738,95.9358278 C409.483738,121.632767 417.313507,143.568105 432.955432,161.724221 C451.618291,183.245518 477.106877,193.992953 509.412383,193.992953 C526.393031,193.992953 541.770733,190.79515 555.545491,184.390737 C569.302634,177.986323 580.796278,168.930288 590,157.213823 L575.441385,146.15806 C558.029175,166.419617 536.398225,176.541586 510.530921,176.541586 C487.023998,176.541586 467.542052,169.009572 452.102697,153.936736 C436.663343,138.881518 428.939262,120.082318 428.939262,97.5655617 C428.939262,82.6689129 432.391759,69.2522387 439.296752,57.3243484 C446.201746,45.3964581 455.925104,35.8911452 468.484442,28.8172191 C481.034973,21.7521024 494.67762,18.2107347 509.412383,18.2107347 C522.878882,18.2107347 535.244457,20.9152121 546.500302,26.306548 C557.756146,31.7155027 567.409045,39.6439379 575.441385,50.100663 L590,38.9303787 C581.130958,26.6236854 569.743003,17.0567069 555.85375,10.2382527 Z" id="Stroke-7"></path>
        </g>
        <path d="M619.740945,593.25533 C649.536781,593.25533 674.44012,603.255467 694.500942,623.13797 C714.595857,643.054264 724.676105,667.560795 724.676105,696.68536 C724.676105,725.530921 714.63522,749.9912 694.589724,770.081341 C674.540227,790.175491 650.09744,800.240817 621.246075,800.240817 C592.054626,800.240818 567.433074,790.212581 547.353596,770.222345 C527.245019,750.203139 517.188908,725.98398 517.188908,697.563352 C517.188908,678.665113 521.765799,661.151562 530.902173,645.018063 C540.067507,628.833424 552.569044,616.1648 568.394737,607.000204 C584.214195,597.839218 601.328988,593.25533 619.740945,593.25533 Z M620.618937,624.51689 C608.153902,624.51689 596.344807,627.783414 585.182529,634.282 C574.008479,640.78744 565.276319,649.544653 558.99967,660.56706 C552.699159,671.631372 549.579315,683.969027 549.579315,697.563353 C549.579315,717.616674 556.501342,734.564751 570.398401,748.385242 C584.287967,762.198281 601.028177,769.104685 620.618937,769.104685 C633.738045,769.104685 645.882265,765.929958 657.046468,759.561375 C668.153655,753.225316 676.822824,744.564952 683.044927,733.571297 C689.307852,722.505516 692.411125,710.205091 692.411125,696.68536 C692.411125,683.272425 689.319006,671.131828 683.069605,660.281641 C676.833018,649.453702 668.038124,640.803953 656.71617,634.301479 C645.373515,627.787117 633.34339,624.51689 620.618937,624.51689 Z M846.137583,593.25533 C864.443044,593.25533 880.95936,596.913462 895.705317,604.153193 C912.52882,612.412925 925.906759,624.433407 935.855175,640.19574 L911.171303,659.134228 L906.631459,653.279591 C899.363603,644.000156 890.693846,636.924791 880.598397,632.083479 C870.21771,627.10538 858.810292,624.642318 846.388438,624.642318 C832.839286,624.642318 820.287516,627.885309 808.738436,634.391291 C797.267277,640.853377 788.360084,649.518847 782.048992,660.419823 C775.717956,671.355249 772.58941,683.659705 772.58941,697.312497 C772.58941,717.904613 779.606285,735.116566 793.739721,748.905284 C807.949475,762.768458 825.902027,769.606395 847.517285,769.606395 C873.346303,769.606395 894.576163,758.609703 911.258186,736.730313 L936.274763,755.708406 L931.519783,761.70305 C921.777325,773.873245 909.695931,783.319614 895.266119,790.030135 C880.680398,796.81316 864.393481,800.240818 846.388438,800.240817 C811.949384,800.240817 784.881907,788.62381 765.018103,765.731445 C748.341722,746.379768 739.948147,723.051751 739.948147,695.68194 C739.948148,666.792336 750.10019,642.499896 770.353629,622.782972 C790.51817,603.152591 815.756266,593.25533 846.137583,593.25533 Z M361.825062,597.896147 L418.610702,730.473709 L476.445768,597.896147 L510.904802,597.896148 L424.88817,795.6 L412.197934,795.6 L327.390911,597.896147 L361.825062,597.896147 Z" id="VOC" stroke="#000000" stroke-width="13.2" fill="#000000" fill-rule="nonzero"></path>
        <g id="Group-27" transform="translate(266, 265)" fill="#000000">
            <path d="M221.673081,137.999559 C221.673081,147.489278 213.988706,155.17983 204.506609,155.17983 C195.024513,155.17983 187.340138,147.489278 187.340138,137.999559 C187.340138,128.50984 195.024513,120.810468 204.506609,120.810468 C213.988706,120.810468 221.673081,128.50984 221.673081,137.999559" id="Fill-9"></path>
            <path d="M221.673081,258.810909 C221.673081,268.300628 213.988706,276 204.506609,276 C195.024513,276 187.340138,268.300628 187.340138,258.810909 C187.340138,249.321191 195.024513,241.630638 204.506609,241.630638 C213.988706,241.630638 221.673081,249.321191 221.673081,258.810909" id="Fill-11"></path>
            <path d="M221.673081,17.1802713 C221.673081,26.6699899 213.988706,34.3605426 204.506609,34.3605426 C195.024513,34.3605426 187.340138,26.6699899 187.340138,17.1802713 C187.340138,7.69055265 195.024513,0 204.506609,0 C213.988706,0 221.673081,7.69055265 221.673081,17.1802713" id="Fill-13"></path>
            <path d="M128.007418,198.410085 C128.007418,207.899803 120.323043,215.590356 110.840947,215.590356 C101.35885,215.590356 93.6656626,207.899803 93.6656626,198.410085 C93.6656626,188.911547 101.35885,181.220994 110.840947,181.220994 C120.323043,181.220994 128.007418,188.911547 128.007418,198.410085" id="Fill-15"></path>
            <path d="M128.007418,77.5899152 C128.007418,87.0796338 120.323043,94.7701865 110.840947,94.7701865 C101.35885,94.7701865 93.6656626,87.0796338 93.6656626,77.5899152 C93.6656626,68.1001965 101.35885,60.4008244 110.840947,60.4008244 C120.323043,60.4008244 128.007418,68.1001965 128.007418,77.5899152" id="Fill-17"></path>
            <path d="M34.3417557,137.999559 C34.3417557,147.489278 26.6573803,155.17983 17.175284,155.17983 C7.69318777,155.17983 0,147.489278 0,137.999559 C0,128.50984 7.69318777,120.810468 17.175284,120.810468 C26.6573803,120.810468 34.3417557,128.50984 34.3417557,137.999559" id="Fill-19"></path>
            <path d="M281.001394,198.410085 C281.001394,207.899803 288.685769,215.590356 298.167866,215.590356 C307.649962,215.590356 315.334337,207.899803 315.334337,198.410085 C315.334337,188.911547 307.649962,181.220994 298.167866,181.220994 C288.685769,181.220994 281.001394,188.911547 281.001394,198.410085" id="Fill-21"></path>
            <path d="M281.001394,77.5899152 C281.001394,87.0796338 288.685769,94.7701865 298.167866,94.7701865 C307.649962,94.7701865 315.334337,87.0796338 315.334337,77.5899152 C315.334337,68.1001965 307.649962,60.4008244 298.167866,60.4008244 C288.685769,60.4008244 281.001394,68.1001965 281.001394,77.5899152" id="Fill-23"></path>
            <path d="M374.667057,137.999559 C374.667057,147.489278 382.351432,155.17983 391.833528,155.17983 C401.315625,155.17983 409,147.489278 409,137.999559 C409,128.50984 401.315625,120.810468 391.833528,120.810468 C382.351432,120.810468 374.667057,128.50984 374.667057,137.999559" id="Fill-25"></path>
        </g>
        <path d="M288.87137,597.727303 L288.87137,622.522596 L260.073216,622.522596 L260.073216,739.12 L234.663329,739.12 L234.663329,622.522596 L205.777375,622.522596 L205.777375,597.727303 L288.87137,597.727303 Z" id="T" stroke="#000000" stroke-width="12.24" fill="#000000" fill-rule="nonzero"></path>
    </g>
</svg>