<?xml version="1.0" encoding="UTF-8"?>
<svg width="960px" height="960px" viewBox="0 0 960 960" version="1.1" xmlns="http://www.w3.org/2000/svg" xmlns:xlink="http://www.w3.org/1999/xlink">
    <title>custom-capabilities/measure_pm0.3</title>
    <g id="custom-capabilities/measure_pm0.3" stroke="none" stroke-width="1" fill="none" fill-rule="evenodd">
        <g id="measure_PM10" transform="translate(0, 135)" fill="#000000" fill-rule="nonzero">
            <path d="M891.201463,429.027086 C902.213049,426.434262 909.039929,415.406986 906.452086,404.393164 C888.970556,330.116496 834.880215,268.623132 763.920928,241.401459 C728.628717,100.830829 600.2053,0 454.199779,0 C307.36224,0 178.710246,101.589781 144.067192,243.230258 C56.9958749,278.817346 0.0721670635,363.512529 0,457.583781 C0,582.463317 97.0992945,683.559322 221.499765,688.780543 C222.501891,688.927024 223.513346,689 224.526118,689 L260.00119,689 C271.314757,689 280.486215,679.827603 280.486215,668.512879 C280.486215,657.198155 271.314757,648.025758 260.00119,648.025758 L226.775311,648.025758 C226.245013,647.970895 225.714716,647.934319 225.175275,647.916031 C121.8587,644.605904 40.9700507,561.002361 40.9700507,457.583781 C41.0235794,376.699284 92.0921993,304.647638 168.387731,277.812846 C175.184703,275.445412 180.239217,269.682121 181.700026,262.633815 C208.2149,134.197266 322.878012,40.9742401 454.236351,40.9742401 C584.908961,40.9742401 699.398355,133.593762 726.507528,261.22564 C728.029678,268.387236 733.258349,274.191654 740.222117,276.450391 C803.07151,296.905507 851.51144,349.529196 866.624918,413.784047 C869.222439,424.766436 880.209957,431.581193 891.201463,429.027086 L891.201463,429.027086 Z" id="Path"></path>
            <path d="M412.60605,483.922717 C404.710147,481.949883 390.567138,481 369.389264,481 L334.0409,481 C329.047749,481 325,485.036043 325,490.014754 L325,666.985246 C325,671.963957 329.047749,676 334.0409,676 L351.774622,676 C356.767773,676 360.815522,671.963957 360.815522,666.985246 L360.815522,593.70726 L364.479514,593.70726 C387.379465,593.70726 402.878151,592.684309 411.726692,590.574473 C424.660584,587.469087 435.029681,581.230913 442.550025,572.042623 C450.070369,562.854333 454,551.035597 454,537.17096 C454,523.306323 450.052049,511.59719 442.256905,502.235363 C434.651818,493.057489 424.234566,486.623696 412.60605,483.922717 L412.60605,483.922717 Z M381.929276,558.725995 L360.815522,558.470258 L360.815522,516.346604 L383.147554,516.346604 C396.557765,516.346604 402.823191,517.698361 405.708585,518.840047 C409.219865,520.224749 412.192954,522.696224 414.190726,525.891101 C416.420544,529.253106 417.588329,533.204457 417.543279,537.234895 C417.611321,541.342601 416.443604,545.376434 414.190726,548.816159 C412.041532,552.129974 408.877191,554.663736 405.168146,556.040749 C402.062913,557.264637 395.476887,558.716862 381.929276,558.725995 L381.929276,558.725995 Z" id="Shape"></path>
            <path d="M646.453201,481 L643.618603,481 C640.176553,481 637.034154,482.95529 635.517141,486.041217 L572.241607,614.81135 L508.34429,485.986421 C506.817727,482.933586 503.695997,481.00346 500.279403,481 L497.40823,481 C492.917,480.996151 489.107819,484.294425 488.474675,488.735344 L463.091311,665.670986 C462.720118,668.258252 463.491603,670.879051 465.205762,672.853959 C466.919922,674.828867 469.407958,675.963409 472.024865,675.963464 L489.123889,675.963464 C493.638283,675.963473 497.458265,672.63192 498.066588,668.164194 L511.508067,569.705273 L561.83589,670.95878 C563.360276,674.024601 566.491802,675.963479 569.919065,675.963464 L574.445278,675.963464 C577.876632,675.960039 581.009202,674.013436 582.528453,670.940515 L632.170487,570.664199 L645.666829,668.21899 C646.282993,672.676026 650.095531,675.996694 654.600383,676 L671.973723,676 C674.591662,676.003001 677.081635,674.869334 678.796472,672.893646 C680.511308,670.917958 681.28165,668.295368 680.907278,665.707516 L655.386755,488.707946 C654.73757,484.279926 650.933943,481 646.453201,481 Z" id="Path"></path>
            <path d="M820.203302,517.326759 C814.149887,502.541738 805.664132,491.192543 794.974641,483.608138 C784.371438,475.981088 771.617734,471.917303 758.553561,472.001516 C745.622394,471.910035 733.001843,475.961333 722.543968,483.562448 C712.000783,491.146854 703.798496,502.258465 698.156566,516.595732 C692.670087,530.549211 690,549.336605 690,574.063594 C690,598.63524 692.74324,617.413497 698.27544,631.47663 C703.999667,645.941827 712.211098,657.062576 722.671985,664.555603 C733.097428,672.090966 745.659929,676.09949 758.526129,675.998124 C771.65711,676.07462 784.470638,671.964309 795.102659,664.263192 C805.865303,656.596546 814.360202,645.247351 820.33132,630.517157 C826.165277,616.143338 828.999979,597.675768 828.999979,574.054457 C829.009102,550.67073 826.046403,531.581786 820.203302,517.326759 Z M775.753674,636.027273 C765.274499,643.977192 753.359694,644.123397 742.450744,635.853654 C736.964264,631.668524 732.629946,625.235486 729.648958,616.746435 C726.42108,607.508081 724.78428,593.253054 724.78428,574.365143 C724.78428,555.477232 726.439368,541.112551 729.694679,531.892473 C732.693955,523.394284 737.009985,516.970384 742.432456,512.812667 C747.854926,508.654951 753.231676,506.763419 759.129642,506.763419 C764.872157,506.763419 770.276339,508.74633 775.653089,512.821805 C781.029839,516.897281 785.574473,523.924278 788.902937,533.528146 C792.487437,543.872178 794.307119,557.606349 794.307119,574.356005 C794.307119,591.105662 792.249689,605.315 788.162262,616.984019 C785.263572,625.573586 781.066415,631.979211 775.753674,636.027273 Z" id="Shape"></path>
            <path d="M906.68932,571.5 C912.168358,571.5 917.277069,572.753887 922.017141,575.25493 C926.817456,577.78776 930.521478,581.21058 933.149495,585.502205 C935.80323,589.835826 937.115534,594.366847 937.115534,599.087379 C937.115534,606.965477 933.842649,613.499487 927.149474,618.612545 C930.421561,620.479745 933.222936,622.841816 935.557926,625.691878 C940.170538,631.313499 942.463107,637.610989 942.463107,644.574757 C942.463107,650.513915 940.903698,656.182929 937.766997,661.577105 C934.626096,666.978504 930.34158,671.152665 924.91676,674.103006 C919.543297,677.025415 913.535873,678.5 906.887379,678.5 C897.861273,678.5 890.35239,675.859627 884.326727,670.664272 C877.779249,665.019005 873.632723,656.518107 872.070224,645.045631 L886.418542,645.045631 L887.071691,647.451307 C888.576381,652.873435 890.627759,656.876472 893.376867,659.354729 C896.945656,662.525796 901.507509,664.059223 907.019417,664.059223 C913.311745,664.059223 918.401065,662.231764 922.227824,658.444457 C925.986385,654.724644 927.890291,650.372114 927.890291,645.36699 C927.890291,642.06372 926.951043,638.974784 925.089049,636.095412 C923.213944,633.195765 920.700077,631.012523 917.549373,629.543483 C913.795462,627.793193 907.741318,626.85361 899.435922,626.569061 L899.435922,612.783059 L902.536483,612.757 C906.385687,612.690861 909.908462,611.985081 913.100368,610.619868 C916.231621,609.280598 918.552545,607.619073 919.973267,605.535347 C921.330347,603.544962 922.014563,601.374785 922.014563,599.021359 C922.014563,595.496656 920.576746,592.468926 917.776404,589.906522 C914.854227,587.232634 911.146038,585.940777 906.68932,585.940777 C903.105543,585.940777 900.001233,586.926966 897.394012,588.948507 C894.358701,591.301973 891.923543,595.524008 889.898462,601.45534 L875.08928,601.45534 L875.939673,597.786103 C877.920123,589.470648 881.633578,583.082587 886.986621,578.560189 C892.54748,573.862222 899.111745,571.5 906.68932,571.5 Z" id="3" stroke="#000000" stroke-width="5"></path>
            <path d="M455.5,317 C466.821837,317 476,307.821837 476,296.5 C476,285.178163 466.821837,276 455.5,276 C444.178163,276 435,285.178163 435,296.5 C435.014971,307.81563 444.18437,316.985029 455.5,317 L455.5,317 Z" id="Path"></path>
            <path d="M476,411.5 C476,400.178163 466.821837,391 455.5,391 C444.178163,391 435,400.178163 435,411.5 C435,422.821837 444.178163,432 455.5,432 C466.817697,431.990011 475.990011,422.817697 476,411.5 Z" id="Path"></path>
            <path d="M455.5,201 C466.821837,201 476,191.821837 476,180.5 C476,169.178163 466.821837,160 455.5,160 C444.178163,160 435,169.178163 435,180.5 C435.014971,191.81563 444.18437,200.985029 455.5,201 L455.5,201 Z" id="Path"></path>
            <path d="M365.5,374 C376.821837,374 386,364.821837 386,353.5 C386,342.178163 376.821837,333 365.5,333 C354.178163,333 345,342.178163 345,353.5 C345.009989,364.817697 354.182303,373.990011 365.5,374 Z" id="Path"></path>
            <path d="M365.4997,259 C373.791055,259 381.26599,254.005408 384.438954,246.345195 C387.611918,238.684982 385.858051,229.867696 379.995178,224.004822 C374.132304,218.141949 365.315018,216.388082 357.654805,219.561046 C349.994592,222.73401 345,230.208945 345,238.5003 C345.009989,249.817831 354.182169,258.990011 365.4997,259 L365.4997,259 Z" id="Path"></path>
            <path d="M275.5,276 C264.178163,276 255,285.178163 255,296.5 C255,307.821837 264.178163,317 275.5,317 C286.821837,317 296,307.821837 296,296.5 C295.985029,285.18437 286.81563,276.014971 275.5,276 L275.5,276 Z" id="Path"></path>
            <path d="M545.5,374 C556.821837,374 566,364.821837 566,353.5 C566,342.178163 556.821837,333 545.5,333 C534.178163,333 525,342.178163 525,353.5 C525.009989,364.817697 534.182303,373.990011 545.5,374 Z" id="Path"></path>
            <path d="M545.4997,259 C553.791055,259 561.26599,254.005408 564.438954,246.345195 C567.611918,238.684982 565.858051,229.867696 559.995178,224.004822 C554.132304,218.141949 545.315018,216.388082 537.654805,219.561046 C529.994592,222.73401 525,230.208945 525,238.5003 C525.014971,249.815765 534.184235,258.985029 545.4997,259 L545.4997,259 Z" id="Path"></path>
            <path d="M656,296.5 C656,285.178163 646.821837,276 635.5,276 C624.178163,276 615,285.178163 615,296.5 C615,307.821837 624.178163,317 635.5,317 C646.81563,316.985029 655.985029,307.81563 656,296.5 L656,296.5 Z" id="Path"></path>
            <path d="M838,665.857955 C838,662.808712 839.064539,660.333965 841.193616,658.433712 C843.322694,656.53346 845.989764,655.583333 849.194827,655.583333 C852.445676,655.583333 855.13564,656.53346 857.264717,658.433712 C859.393795,660.333965 860.458333,662.808712 860.458333,665.857955 C860.458333,668.863005 859.405241,671.304609 857.299057,673.182765 C855.192873,675.060922 852.491463,676 849.194827,676 C845.943977,676 843.26546,675.060922 841.159276,673.182765 C839.053092,671.304609 838,668.863005 838,665.857955 Z" id="Path"></path>
        </g>
    </g>
</svg>